<svg width="22" height="23" viewBox="0 0 22 23" fill="none" xmlns="http://www.w3.org/2000/svg">
<path d="M3 9.5C3 5.72876 3 3.84315 4.17157 2.67157C5.34315 1.5 7.22876 1.5 11 1.5H12.5C16.2712 1.5 18.1569 1.5 19.3284 2.67157C20.5 3.84315 20.5 5.72876 20.5 9.5V13.5C20.5 17.2712 20.5 19.1569 19.3284 20.3284C18.1569 21.5 16.2712 21.5 12.5 21.5H11C7.22876 21.5 5.34315 21.5 4.17157 20.3284C3 19.1569 3 17.2712 3 13.5V9.5Z" stroke="#5B0363" stroke-width="2"/>
<path d="M8.79993 11.4741C8.37332 10.7302 8.16733 10.1228 8.04313 9.507C7.85943 8.59641 8.27981 7.70686 8.97622 7.13926C9.2706 6.89937 9.608 6.98133 9.782 7.29358L10.1749 7.99851C10.4864 8.55725 10.6421 8.83663 10.6112 9.13282C10.5803 9.429 10.3703 9.6702 9.9503 10.1527L8.79993 11.4741ZM8.79993 11.4741C9.6634 12.9797 11.0185 14.3356 12.5259 15.2001M12.5259 15.2001C13.2698 15.6267 13.8772 15.8327 14.493 15.9569C15.4036 16.1406 16.2931 15.7202 16.8607 15.0238C17.1006 14.7294 17.0187 14.392 16.7064 14.218L16.0015 13.8251C15.4427 13.5136 15.1634 13.3579 14.8672 13.3888C14.571 13.4197 14.3298 13.6297 13.8473 14.0497L12.5259 15.2001Z" stroke="#5B0363" stroke-width="2" stroke-linejoin="round"/>
<path d="M4 5.5H1.5M4 11.5H1.5M4 17.5H1.5" stroke="#5B0363" stroke-width="2" stroke-linecap="round" stroke-linejoin="round"/>
</svg>
